<svg xmlns="http://www.w3.org/2000/svg" xmlns:xlink="http://www.w3.org/1999/xlink" width="214.823" height="181.451" viewBox="0 0 214.823 181.451">
  <defs>
    <linearGradient id="linear-gradient" x1="0.5" x2="0.5" y2="1" gradientUnits="objectBoundingBox">
      <stop offset="0" stop-color="#167d56"/>
      <stop offset="0.003" stop-color="#167d56"/>
      <stop offset="1" stop-color="#1da471"/>
    </linearGradient>
  </defs>
  <g id="Group_71" data-name="Group 71" transform="translate(0.25 0)">
    <g id="Group_6" data-name="Group 6" transform="translate(43.052 0)">
      <g id="Group_5" data-name="Group 5">
        <g id="Group_3" data-name="Group 3">
          <path id="Path_32" data-name="Path 32" d="M1828.7,933.6c1.077-2.518,1.6-2.7,4.681-2.218a67.447,67.447,0,0,0,18.26.429,7.319,7.319,0,0,0,1.012-.308c-.563-.429-.916-.727-1.3-.981-1.783-1.191-3.585-2.357-5.364-3.557-2.083-1.408-2.568-2.739-1.557-4.158.952-1.337,2.407-1.343,4.342-.045,2.193,1.471,4.309,3.083,6.612,4.357,5.526,3.058,11.067,6.108,16.745,8.865a19.766,19.766,0,0,0,16.168.893c3.125-1.178,6.35-2.092,9.9-3.246-2.528-1.942-4.765-3.795-7.135-5.455a118.058,118.058,0,0,0-25.044-13.552c-7.322-2.835-10.946-8.144-11.244-15.862-.184-4.771-1.361-5.193,4.71-6.9,6.63-1.867,11.61-6.371,16.03-11.453,2.051-2.358,3.859-4.927,5.9-7.556l-5.444-4.942c-2.5,2.694-4.781,5.384-7.326,7.792a19.939,19.939,0,0,1-5.044,3.366,9.794,9.794,0,0,1-13.385-4.714c-2.711-5.494-5.6-10.909-9.687-15.483a99.315,99.315,0,0,0-9.017-8.4c-1.414-1.23-2-2.489-1.2-3.784.82-1.325,2.369-1.506,4.042-.4a48.518,48.518,0,0,1,13.371,13.774c2.2,3.276,4.051,6.8,6.057,10.206a4.552,4.552,0,0,0,.889,1.19,38.3,38.3,0,0,0-1.012-10.991c-2.534-9.317-8.582-15.7-16.961-20.027-3.018-1.558-6.237-2.727-9.359-4.085a1.608,1.608,0,0,0-2.415.829c-5.141,10.093-7.568,20.629-6.1,32.042,1.435,11.176,3.068,22.359,2.856,33.681a36,36,0,0,1-2.841,14.464,15.836,15.836,0,0,0-1.423,8.028,2.417,2.417,0,0,1-2.209,2.912c-1.423.129-2.473-.821-2.719-2.474a17.157,17.157,0,0,1,1.435-9.672,34.86,34.86,0,0,0,2.754-16.934c-.567-8.5-1.151-17.036-2.442-25.445a61.673,61.673,0,0,1,5.9-38.285,4.624,4.624,0,0,1,1.02-1.672c1.607-1.19,1.791-2.817,1.565-4.551-.54-4.133-1.1-8.266-1.8-12.374a3.447,3.447,0,0,0-1.47-1.972,4.55,4.55,0,0,1-1.928-4.139,21.426,21.426,0,0,1,8.435-17.987c11.717-9.329,28.286-2.893,32.833,10.076-.311,3.068-.5,6.154-1,9.191a3.618,3.618,0,0,0,.189,2.61c.822,1.492,1.567,3.027,2.3,4.566,1.33,2.8.454,5.447-2.378,6.7-1.035.459-.818,1.059-.8,1.829a26.765,26.765,0,0,1-.03,5.231c-.485,2.861-2.295,4.21-5.222,4.255a24.377,24.377,0,0,1-2.956-.212c-.968-.1-1.93-.257-3.028-.408.107,2.1.17,3.876,1.931,5.405a35.094,35.094,0,0,1,11.184,19.021c.06.26.128.519.263,1.062a18.491,18.491,0,0,0,2.64-1.43,33.147,33.147,0,0,0,10.166-12.978c2.078-4.735,5.183-8.232,10.274-9.764a3.21,3.21,0,0,0,1.55-1.424c1.462-2.444,2.665-5.058,4.274-7.4,1.723-2.5,3.742-2.984,6.672-2.047a13.11,13.11,0,0,1,8.014,6.92c.937,1.885.513,3.423-1.009,4.079-1.465.63-2.569-.132-3.581-1.937a20.425,20.425,0,0,0-3.134-4.145,1.875,1.875,0,0,0-3.2.394c-1.328,2.136-2.533,4.348-3.708,6.388l-2.641-1.949v5.6c-4.236.614-6.977,3.006-8.719,6.782-.834,1.809.809,2.089,1.5,2.979.677.868,1.3.576,2.1.078a11.344,11.344,0,0,1,3.26-1.546,3.762,3.762,0,0,0,2.669-2.506,45.089,45.089,0,0,1,3.8-6.535c1.765-2.507,3.708-2.995,6.665-2.112a12.267,12.267,0,0,1,8.26,16.337c-1.789,4.871-5.213,8.513-9.231,11.6-2.351,1.8-4.959,3.27-7.358,5.015a12.1,12.1,0,0,0-2.966,2.924c-4.777,7.179-10.3,13.624-17.781,18.1a49.906,49.906,0,0,1-6.862,3.172,1.578,1.578,0,0,0-1.215,1.776c.162,5.354,2.358,9.146,7.592,11.187a116.96,116.96,0,0,1,29.689,16.645,59.205,59.205,0,0,1,8.859,8.812c3.708,4.444,2.428,10.064-2.919,12.235a51.907,51.907,0,0,1-12.059,3.13c-14.754,2.118-29.623,2.094-44.489,1.794-5.5-.111-11.017-.116-16.5-.513a42.476,42.476,0,0,0-20.119,2.02,16.2,16.2,0,0,1-7.944.792c-3.739-.743-5.571-3.422-4.242-7a12.069,12.069,0,0,1,3.087-4.552,16.543,16.543,0,0,1,11.5-4.673,2.111,2.111,0,0,0,1.641-.689c1.518-3.119,4.32-4.219,7.4-4.482A53.439,53.439,0,0,1,1828.7,933.6Zm-2.175-117.12c.4,4.684.773,9.265,1.217,13.839a1.539,1.539,0,0,0,.869.973c4.049,1.682,8.118,3.313,12.271,4.993,0,.008.115-.227.225-.466,1.545-3.4,3.75-4.548,7.414-3.881a15.833,15.833,0,0,0,1.965.2c1.918.1,2.311-.194,2.025-2.14a51.064,51.064,0,0,0-1.323-5.428c-.525-2,.409-3.4,2.458-3.562a12.966,12.966,0,0,1,1.745.09c-.946-3.549-4.57-6.278-2.751-9.848-.868-1.272-1.8-2.122-2.058-3.142-.4-1.546.884-2.434,2.106-2.96,1.288-.555,1.239-1.23.729-2.3-2.653-5.553-6.92-9.012-13.118-9.426-6.5-.433-11.883,1.936-15.478,7.58a14.555,14.555,0,0,0-2.154,9.728,2.033,2.033,0,0,0,.581.2c4.037-.254,8.1-.317,12.1-.847,3.306-.437,6.536-1.438,9.8-2.169a2.507,2.507,0,0,1,1.728,4.7,7.65,7.65,0,0,1-1.669.681Zm4.727,130.271c.966.09,1.769.2,2.573.232,2.583.092,5.166.176,7.751.223,16.822.3,33.657.737,50.36-1.871a55.149,55.149,0,0,0,9.14-2.6,2.369,2.369,0,0,0,1.566-3.208c-.544-1.372-1.9-.85-2.889-.587-2.6.689-5.183,1.44-7.725,2.309-7.423,2.541-14.737,2.674-21.945-.761-3.022-1.441-6.03-2.915-9.1-4.25a5.06,5.06,0,0,0-2.908-.432,68.381,68.381,0,0,1-21.644,1.034c-1.017-.1-2.037-.142-2.99-.206Zm56.515-91.781c-4.638.606-7.378,3.2-8.916,7.171a1.872,1.872,0,0,0,.376,1.633c1.5,1.45,3.154,2.734,4.673,4.165a1.52,1.52,0,0,0,2.171.161c2.207-1.435,4.5-2.745,6.643-4.273a21.983,21.983,0,0,0,7.155-7.615,9.235,9.235,0,0,0-1.811-11.161c-1.937-1.71-3.189-1.661-4.56.486-1.229,1.925-2.2,4.017-3.143,5.78l-2.447-1.7-.43.406Zm-86.116,94.443a10.1,10.1,0,0,0,6.1-.281,44.619,44.619,0,0,1,15-2.715c3.947-.075,3.082.611,3.976-3.346.871-3.85.8-3.865-3.022-4.9-.054-.014-.108-.056-.156-.048a24.517,24.517,0,0,0-4.144.739c-.517.176-.645,1.292-1.132,1.812a8.476,8.476,0,0,1-2.644,2.249,11.435,11.435,0,0,1-3.727.447C1807.554,943.563,1804.381,945.725,1801.654,949.415Zm58.587-75.049.616.369c7.335-3.8,11.329-10.474,14.8-17.987-.338-.248-.739-.537-1.135-.829-.257-.189-.51-.381-.8-.6a4.334,4.334,0,0,0-.51.489c-3.438,4.616-7.119,8.947-12.681,11.167a1.272,1.272,0,0,0-.561,1C1860.014,870.109,1860.141,872.237,1860.24,874.366Z" transform="translate(-1797.125 -788.382)" fill="url(#linear-gradient)"/>
        </g>
        <g id="Group_4" data-name="Group 4" transform="translate(25.243 74.072)">
          <path id="Path_33" data-name="Path 33" d="M1816.28,837.631a19.708,19.708,0,0,1,2.411,2.312c3.924,5.365,7.666,10.867,11.711,16.138a42.824,42.824,0,0,0,10.791,10.1c1.513.971,1.838,2.4,1,3.659s-2.272,1.483-3.77.529c-5.557-3.543-9.937-8.347-13.885-13.509-3.6-4.711-6.913-9.65-10.22-14.575a3.741,3.741,0,0,1-.229-2.867C1814.3,838.764,1815.32,838.37,1816.28,837.631Z" transform="translate(-1813.908 -837.631)" fill="url(#linear-gradient)"/>
        </g>
      </g>
    </g>
    <g id="Group_10" data-name="Group 10" transform="translate(0 113.841)">
      <g id="Group_7" data-name="Group 7" transform="translate(26.403 24.55)">
        <path id="Path_34" data-name="Path 34" d="M1786.395,880.9a1.376,1.376,0,0,1-.34.909l.245-1.409A1.352,1.352,0,0,1,1786.395,880.9Z" transform="translate(-1786.055 -880.396)" stroke="#1b9a69" stroke-width="0.5" fill="url(#linear-gradient)"/>
      </g>
      <g id="Group_8" data-name="Group 8" transform="translate(23.681 39.87)">
        <path id="Path_35" data-name="Path 35" d="M1784.8,891.351a1.385,1.385,0,0,1-.556,1.113l.323-1.881A1.343,1.343,0,0,1,1784.8,891.351Z" transform="translate(-1784.245 -890.582)" stroke="#1b9a69" stroke-width="0.5" fill="url(#linear-gradient)"/>
      </g>
      <g id="Group_9" data-name="Group 9">
        <path id="Path_36" data-name="Path 36" d="M1982.823,871.867a1.393,1.393,0,0,1-1.391,1.393h-15.844l-3.124,14.473h16.3a1.392,1.392,0,0,1,0,2.784h-16.9l-2.762,12.8H1976.1a1.391,1.391,0,0,1,0,2.782h-17.591l-2.4,11.134h17.737a1.391,1.391,0,0,1,0,2.782h-18.337l-2.222,10.316a1.382,1.382,0,0,1-1.358,1.1H1786.592a1.392,1.392,0,0,1-1.064-.495,1.375,1.375,0,0,1-.3-1.131l1.686-9.787h-17.018a1.391,1.391,0,0,1,0-2.782h17.5l1.921-11.134h-15.787a1.391,1.391,0,1,1,0-2.782h16.266l2.209-12.8h-14.841a1.392,1.392,0,1,1,0-2.784h15.321l2.493-14.473h-14.7a1.392,1.392,0,1,1,0-2.784h15.187l.9-5.245a1.388,1.388,0,0,1,1.37-1.158h29.5a1.392,1.392,0,0,1,0,2.784H1798.9l-.891,5.155a1.348,1.348,0,0,1-.022.134l-2.84,16.478-.245,1.409v0l-2.4,13.906-.323,1.881-2.049,11.864-.373,2.17-1.514,8.789H1950.8l13.316-61.791h-80.107a1.392,1.392,0,0,1,0-2.784h81.832a1.387,1.387,0,0,1,1.358,1.687l-1.018,4.715h15.248A1.392,1.392,0,0,1,1982.823,871.867Z" transform="translate(-1768.5 -864.073)" stroke="#1b9a69" stroke-width="0.5" fill="url(#linear-gradient)"/>
        <path id="Path_37" data-name="Path 37" d="M1783.376,900.661a1.391,1.391,0,0,1-.741,1.231l.373-2.17A1.375,1.375,0,0,1,1783.376,900.661Z" transform="translate(-1761.376 -846.106)" stroke="#1b9a69" stroke-width="0.5" fill="url(#linear-gradient)"/>
      </g>
    </g>
  </g>
</svg>
